<?xml version="1.0" encoding="UTF-8"?>
<svg xmlns="http://www.w3.org/2000/svg" width="512" height="512" viewBox="-4.124264 0 971.353781 971.353781">
 <defs>
  <style id="current-color-scheme" type="text/css">.ColorScheme-Text { color:#232629; }</style>
 </defs>
 <g transform="translate(-0.500000,971.811472) scale(0.100000,-0.100000)" class="ColorScheme-Text" fill="currentColor" stroke="none">
  <path d="M4545 9713 c-651 -41 -1301 -219 -1880 -513 -1400 -711 -2375 -2053
-2609 -3590 -45 -294 -51 -388 -51 -750 0 -362 6 -456 51 -750 300 -1968 1805
-3572 3754 -3999 151 -33 403 -73 585 -93 186 -20 781 -17 970 5 1146 134
2137 607 2925 1397 555 555 951 1201 1193 1945 82 250 169 618 151 635 -8 7
-1120 645 -4879 2797 -484 277 -887 502 -896 500 -9 -3 -206 -114 -438 -247
l-421 -243 0 -1916 0 -1916 431 -245 c236 -135 435 -244 442 -242 20 6 2427
1396 2427 1401 0 9 -823 476 -836 475 -6 -1 -368 -207 -804 -459 -436 -251
-799 -459 -807 -462 -11 -4 -13 241 -13 1451 0 801 2 1456 4 1456 7 0 4690
-2681 4700 -2690 32 -31 -190 -536 -353 -806 -161 -265 -326 -478 -546 -703
-635 -651 -1442 -1050 -2340 -1156 -71 -9 -224 -18 -340 -22 -1437 -40 -2766
710 -3489 1971 -252 439 -417 944 -483 1476 -25 204 -25 676 0 880 65 528 230
1035 476 1465 631 1101 1694 1807 2951 1962 204 25 667 25 870 0 681 -84 1278
-314 1830 -705 176 -125 307 -237 491 -421 312 -313 530 -615 729 -1011 112
-224 225 -521 280 -738 9 -34 15 -42 28 -37 9 3 204 115 434 248 397 230 417
243 411 267 -26 111 -190 514 -289 712 -335 669 -843 1273 -1449 1723 -737
549 -1611 873 -2544 945 -122 9 -540 11 -666 3z"/>
 </g>
</svg>
